<svg width="40" height="40" viewBox="0 0 40 40" fill="none" xmlns="http://www.w3.org/2000/svg">
  <path d="M13.333 23.3333H26.6663V22.4166C26.6663 21.1944 26.0552 20.2083 24.833 19.4583C23.6108 18.7083 21.9997 18.3333 19.9997 18.3333C17.9997 18.3333 16.3886 18.7083 15.1663 19.4583C13.9441 20.2083 13.333 21.1944 13.333 22.4166V23.3333ZM22.3538 15.6874C23.0066 15.0346 23.333 14.2499 23.333 13.3333C23.333 12.4166 23.0066 11.6319 22.3538 10.9791C21.7011 10.3263 20.9163 9.99992 19.9997 9.99992C19.083 9.99992 18.2983 10.3263 17.6455 10.9791C16.9927 11.6319 16.6663 12.4166 16.6663 13.3333C16.6663 14.2499 16.9927 15.0346 17.6455 15.6874C18.2983 16.3402 19.083 16.6666 19.9997 16.6666C20.9163 16.6666 21.7011 16.3402 22.3538 15.6874ZM3.33301 36.6666V6.66659C3.33301 5.74992 3.6594 4.9652 4.31217 4.31242C4.96495 3.65964 5.74967 3.33325 6.66634 3.33325H33.333C34.2497 3.33325 35.0344 3.65964 35.6872 4.31242C36.34 4.9652 36.6663 5.74992 36.6663 6.66659V26.6666C36.6663 27.5833 36.34 28.368 35.6872 29.0208C35.0344 29.6735 34.2497 29.9999 33.333 29.9999H9.99967L3.33301 36.6666Z" fill="#E8670A"/>
</svg>
