<svg width="48" height="48" viewBox="0 0 48 48" fill="none" xmlns="http://www.w3.org/2000/svg">
  <path d="M34.3355 30.9351C32.5185 30.9351 30.9753 30.2974 29.706 29.0221C28.4363 27.7468 27.8015 26.1981 27.8015 24.3761C27.8015 22.5544 28.4373 21.0084 29.709 19.7381C30.9803 18.4678 32.5241 17.8326 34.3405 17.8326C36.1565 17.8326 37.7045 18.4684 38.9845 19.7401C40.2641 21.0118 40.904 22.5561 40.904 24.3731C40.904 26.1974 40.2653 27.7471 38.988 29.0221C37.7106 30.2974 36.1598 30.9351 34.3355 30.9351ZM18.8015 39.6151V42.7916H9.25397C8.16464 42.7916 7.23214 42.4009 6.45647 41.6196C5.6808 40.8383 5.29297 39.8991 5.29297 38.8021V9.3111C5.29297 8.22176 5.6808 7.28927 6.45647 6.5136C7.23214 5.73793 8.16464 5.3501 9.25397 5.3501H38.745C39.842 5.3501 40.7811 5.73793 41.5625 6.5136C42.3438 7.28927 42.7345 8.22176 42.7345 9.3111V19.8241C41.9301 18.2864 40.7595 17.0701 39.2225 16.1751C37.6855 15.2801 36.0575 14.8326 34.3385 14.8326C33.7358 14.8326 33.1706 14.9316 32.643 15.1296C32.1153 15.3273 31.6443 15.6051 31.23 15.9631V13.4631C31.23 13.7034 31.3111 13.9048 31.4735 14.0671C31.6361 14.2298 31.8375 14.3111 32.0775 14.3111H15.754C15.329 14.3111 14.9726 14.4556 14.685 14.7446C14.3976 15.0339 14.254 15.3923 14.254 15.8196C14.254 16.2473 14.3976 16.6028 14.685 16.8861C14.9726 17.1694 15.329 17.3111 15.754 17.3111H29.58C28.4826 17.7778 27.5225 18.4708 26.6995 19.3901C25.8761 20.3098 25.2971 21.3653 24.9625 22.5566H15.754C15.329 22.5566 14.9726 22.7013 14.685 22.9906C14.3976 23.2796 14.254 23.6379 14.254 24.0656C14.254 24.4929 14.3976 24.8483 14.685 25.1316C14.9726 25.4149 15.329 25.5566 15.754 25.5566H24.943C24.9996 26.5523 25.2181 27.4979 25.5985 28.3936C25.9788 29.2893 26.4878 30.0921 27.1255 30.8021H15.754C15.329 30.8021 14.9726 30.9468 14.685 31.2361C14.3976 31.5251 14.254 31.8834 14.254 32.3111C14.254 32.7384 14.3976 33.0938 14.685 33.3771C14.9726 33.6604 15.329 33.8021 15.754 33.8021H21.482C20.6196 34.5064 19.9573 35.3764 19.495 36.4121C19.0326 37.4474 18.8015 38.5151 18.8015 39.6151ZM23.782 45.9521C23.2253 45.9521 22.756 45.7613 22.374 45.3796C21.9923 44.9979 21.8015 44.5286 21.8015 43.9716V39.6151C21.8015 38.8131 21.9913 38.0589 22.371 37.3526C22.7503 36.6459 23.2786 36.0901 23.956 35.6851C24.946 35.0994 25.7518 34.6779 26.3735 34.4206C26.9951 34.1636 27.8581 33.8923 28.9625 33.6066C29.3601 33.5209 29.7578 33.5079 30.1555 33.5676C30.5528 33.6269 30.8891 33.8088 31.1645 34.1131L34.3385 38.0891L37.5125 34.1131C37.7961 33.8214 38.132 33.6428 38.52 33.5771C38.9076 33.5111 39.3058 33.5209 39.7145 33.6066C40.8378 33.8923 41.702 34.1589 42.307 34.4066C42.912 34.6543 43.7001 35.0804 44.6715 35.6851C45.3468 36.0974 45.8876 36.6514 46.294 37.3471C46.7006 38.0428 46.904 38.7894 46.904 39.5871V43.9716C46.904 44.5286 46.7078 44.9979 46.3155 45.3796C45.9231 45.7613 45.4496 45.9521 44.895 45.9521H23.782Z" fill="#E8670A"/>
</svg>
