<svg width="40" height="40" viewBox="0 0 40 40" fill="none" xmlns="http://www.w3.org/2000/svg">
  <path d="M13.3337 28.3334V25H16.9587C16.8198 25.5556 16.7295 26.1112 16.6878 26.6667C16.6462 27.2223 16.6531 27.7778 16.7087 28.3334H13.3337ZM13.3337 36.6667C11.0281 36.6667 9.06283 35.8542 7.43783 34.2292C5.81283 32.6042 5.00033 30.6389 5.00033 28.3334V13.3334C4.08366 13.3334 3.29894 13.007 2.64616 12.3542C1.99338 11.7014 1.66699 10.9167 1.66699 10V6.66671C1.66699 5.75004 1.99338 4.96532 2.64616 4.31254C3.29894 3.65976 4.08366 3.33337 5.00033 3.33337H21.667C22.5837 3.33337 23.3684 3.65976 24.0212 4.31254C24.6739 4.96532 25.0003 5.75004 25.0003 6.66671V10C25.0003 10.9167 24.6739 11.7014 24.0212 12.3542C23.3684 13.007 22.5837 13.3334 21.667 13.3334V18.375C21.0003 18.7917 20.3892 19.2778 19.8337 19.8334C19.2781 20.3889 18.792 21 18.3753 21.6667H13.3337V18.3334H18.3337V13.3334H8.33366V28.3334C8.33366 29.7223 8.81977 30.9028 9.79199 31.875C10.7642 32.8473 11.9448 33.3334 13.3337 33.3334C14.167 33.3334 14.9239 33.1528 15.6045 32.7917C16.285 32.4306 16.8614 31.9306 17.3337 31.2917C17.5559 31.8473 17.8059 32.375 18.0837 32.875C18.3614 33.375 18.6948 33.8612 19.0837 34.3334C18.3337 35.0556 17.4725 35.625 16.5003 36.0417C15.5281 36.4584 14.4725 36.6667 13.3337 36.6667ZM30.4587 30.4584C31.2642 29.6528 31.667 28.6667 31.667 27.5C31.667 26.3334 31.2642 25.3473 30.4587 24.5417C29.6531 23.7362 28.667 23.3334 27.5003 23.3334C26.3337 23.3334 25.3475 23.7362 24.542 24.5417C23.7364 25.3473 23.3337 26.3334 23.3337 27.5C23.3337 28.6667 23.7364 29.6528 24.542 30.4584C25.3475 31.2639 26.3337 31.6667 27.5003 31.6667C28.667 31.6667 29.6531 31.2639 30.4587 30.4584ZM36.0003 38.3334L31.5003 33.8334C30.8892 34.2223 30.2503 34.5139 29.5837 34.7084C28.917 34.9028 28.2225 35 27.5003 35C25.417 35 23.6462 34.2709 22.1878 32.8125C20.7295 31.3542 20.0003 29.5834 20.0003 27.5C20.0003 25.4167 20.7295 23.6459 22.1878 22.1875C23.6462 20.7292 25.417 20 27.5003 20C29.5837 20 31.3545 20.7292 32.8128 22.1875C34.2712 23.6459 35.0003 25.4167 35.0003 27.5C35.0003 28.2223 34.9031 28.9167 34.7087 29.5834C34.5142 30.25 34.2225 30.8889 33.8337 31.5L38.3337 36L36.0003 38.3334Z" fill="#E8670A"/>
</svg>
