<svg width="40" height="40" viewBox="0 0 40 40" fill="none" xmlns="http://www.w3.org/2000/svg">
  <path d="M5.00033 33.3334C4.08366 33.3334 3.29894 33.007 2.64616 32.3542C1.99338 31.7015 1.66699 30.9167 1.66699 30.0001V11.6667H5.00033V30.0001H33.3337V33.3334H5.00033ZM11.667 26.6667C10.7503 26.6667 9.9656 26.3404 9.31283 25.6876C8.66005 25.0348 8.33366 24.2501 8.33366 23.3334V10.0001C8.33366 9.08341 8.66005 8.29869 9.31283 7.64591C9.9656 6.99314 10.7503 6.66675 11.667 6.66675H35.0003C35.917 6.66675 36.7017 6.99314 37.3545 7.64591C38.0073 8.29869 38.3337 9.08341 38.3337 10.0001V23.3334C38.3337 24.2501 38.0073 25.0348 37.3545 25.6876C36.7017 26.3404 35.917 26.6667 35.0003 26.6667H11.667ZM15.0003 23.3334C15.0003 22.4167 14.6739 21.632 14.0212 20.9792C13.3684 20.3265 12.5837 20.0001 11.667 20.0001V23.3334H15.0003ZM31.667 23.3334H35.0003V20.0001C34.0837 20.0001 33.2989 20.3265 32.6462 20.9792C31.9934 21.632 31.667 22.4167 31.667 23.3334ZM23.3337 21.6667C24.7225 21.6667 25.9031 21.1806 26.8753 20.2084C27.8475 19.2362 28.3337 18.0556 28.3337 16.6667C28.3337 15.2779 27.8475 14.0973 26.8753 13.1251C25.9031 12.1529 24.7225 11.6667 23.3337 11.6667C21.9448 11.6667 20.7642 12.1529 19.792 13.1251C18.8198 14.0973 18.3337 15.2779 18.3337 16.6667C18.3337 18.0556 18.8198 19.2362 19.792 20.2084C20.7642 21.1806 21.9448 21.6667 23.3337 21.6667ZM11.667 13.3334C12.5837 13.3334 13.3684 13.007 14.0212 12.3542C14.6739 11.7015 15.0003 10.9167 15.0003 10.0001H11.667V13.3334ZM35.0003 13.3334V10.0001H31.667C31.667 10.9167 31.9934 11.7015 32.6462 12.3542C33.2989 13.007 34.0837 13.3334 35.0003 13.3334Z" fill="#E8670A"/>
</svg>
