<svg width="40" height="40" viewBox="0 0 40 40" fill="none" xmlns="http://www.w3.org/2000/svg">
  <path d="M22.4375 34.2291C20.8125 32.6041 20 30.6388 20 28.3333C20 26.0277 20.8125 24.0625 22.4375 22.4375C24.0625 20.8125 26.0278 20 28.3333 20C30.6389 20 32.6042 20.8125 34.2292 22.4375C35.8542 24.0625 36.6667 26.0277 36.6667 28.3333C36.6667 30.6388 35.8542 32.6041 34.2292 34.2291C32.6042 35.8541 30.6389 36.6666 28.3333 36.6666C26.0278 36.6666 24.0625 35.8541 22.4375 34.2291ZM31.125 32.2916L32.2917 31.125L29.1667 28V23.3333H27.5V28.6666L31.125 32.2916ZM8.33333 35C7.41667 35 6.63194 34.6736 5.97917 34.0208C5.32639 33.368 5 32.5833 5 31.6666V8.33329C5 7.41663 5.32639 6.6319 5.97917 5.97913C6.63194 5.32635 7.41667 4.99996 8.33333 4.99996H15.2917C15.5972 4.02774 16.1944 3.22913 17.0833 2.60413C17.9722 1.97913 18.9444 1.66663 20 1.66663C21.1111 1.66663 22.1042 1.97913 22.9792 2.60413C23.8542 3.22913 24.4444 4.02774 24.75 4.99996H31.6667C32.5833 4.99996 33.3681 5.32635 34.0208 5.97913C34.6736 6.6319 35 7.41663 35 8.33329V18.75C34.5 18.3888 33.9722 18.0833 33.4167 17.8333C32.8611 17.5833 32.2778 17.3611 31.6667 17.1666V8.33329H28.3333V13.3333H11.6667V8.33329H8.33333V31.6666H17.1667C17.3611 32.2777 17.5833 32.8611 17.8333 33.4166C18.0833 33.9722 18.3889 34.5 18.75 35H8.33333ZM21.1875 7.85413C21.5069 7.53468 21.6667 7.13885 21.6667 6.66663C21.6667 6.1944 21.5069 5.79857 21.1875 5.47913C20.8681 5.15968 20.4722 4.99996 20 4.99996C19.5278 4.99996 19.1319 5.15968 18.8125 5.47913C18.4931 5.79857 18.3333 6.1944 18.3333 6.66663C18.3333 7.13885 18.4931 7.53468 18.8125 7.85413C19.1319 8.17357 19.5278 8.33329 20 8.33329C20.4722 8.33329 20.8681 8.17357 21.1875 7.85413Z" fill="#E8670A"/>
</svg>
